<svg width="17" height="25" viewBox="0 0 17 25" fill="none" xmlns="http://www.w3.org/2000/svg">
<path id="Vector" d="M13.5807 12.1533C14.2761 11.1475 14.6818 9.92188 14.6818 8.59375C14.6818 5.1416 11.9145 2.34375 8.5 2.34375C5.08551 2.34375 2.31818 5.1416 2.31818 8.59375C2.31818 9.92188 2.72386 11.1475 3.41932 12.1533C3.59801 12.4121 3.81051 12.7051 4.0375 13.0176C4.66051 13.8818 5.40426 14.917 5.95966 15.9375C6.46193 16.8652 6.7179 17.832 6.84347 18.7451H4.49148C4.38523 18.1592 4.20653 17.5879 3.92159 17.0605C3.44347 16.1816 2.84943 15.3564 2.2554 14.5312C2.00426 14.1846 1.75312 13.8379 1.51165 13.4863C0.560227 12.1045 0 10.415 0 8.59375C0 3.84766 3.80568 0 8.5 0C13.1943 0 17 3.84766 17 8.59375C17 10.415 16.4398 12.1045 15.4835 13.4912C15.242 13.8428 14.9909 14.1895 14.7398 14.5361C14.1457 15.3564 13.5517 16.1816 13.0736 17.0654C12.7886 17.5928 12.6099 18.1641 12.5037 18.75H10.1614C10.2869 17.8369 10.5429 16.8652 11.0452 15.9424C11.6006 14.9219 12.3443 13.8867 12.9673 13.0225C13.1943 12.71 13.402 12.417 13.5807 12.1582V12.1533ZM8.5 6.25C7.22017 6.25 6.18182 7.2998 6.18182 8.59375C6.18182 9.02344 5.83409 9.375 5.40909 9.375C4.98409 9.375 4.63636 9.02344 4.63636 8.59375C4.63636 6.43555 6.36534 4.6875 8.5 4.6875C8.925 4.6875 9.27273 5.03906 9.27273 5.46875C9.27273 5.89844 8.925 6.25 8.5 6.25ZM8.5 25C6.36534 25 4.63636 23.252 4.63636 21.0938V20.3125H12.3636V21.0938C12.3636 23.252 10.6347 25 8.5 25Z" fill="#C1C1D1"/>
</svg>
