<svg width="19" height="13" viewBox="0 0 19 13" fill="none" xmlns="http://www.w3.org/2000/svg">
<path id="Vector" d="M2.58463 7.43577C2.87174 7.01735 2.78385 6.5029 2.3649 6.15993C1.74088 5.64776 1.40689 5.03271 1.40689 4.3925C1.40689 2.94061 3.27604 1.46584 6.09439 1.46584C8.91275 1.46584 10.7819 2.94061 10.7819 4.3925C10.7819 5.8444 8.91275 7.31916 6.09439 7.31916C5.71061 7.31916 5.33853 7.28944 4.98697 7.23685C4.68228 7.19112 4.36588 7.22313 4.08756 7.33288C3.96744 7.38089 3.84439 7.42662 3.71842 7.47007C3.24967 7.63469 2.75455 7.77874 2.2565 7.88163C2.33853 7.77645 2.41471 7.67356 2.48795 7.57067C2.52018 7.52723 2.5524 7.4815 2.5817 7.43577H2.58463ZM0.000644179 4.3925C0.000644179 5.34824 0.50455 6.22395 1.34537 6.91446C1.319 6.95333 1.28971 6.99448 1.26334 7.03107C0.961582 7.45177 0.610019 7.86562 0.191074 8.22231C-0.00228551 8.38236 -0.0520902 8.61558 0.0563082 8.8145C0.170566 9.01799 0.422519 9.14832 0.703769 9.14832C1.96353 9.14832 3.23795 8.84422 4.2985 8.46924C4.43912 8.41894 4.57975 8.36635 4.71451 8.31377C5.15689 8.38236 5.61979 8.41666 6.09439 8.41666C9.46061 8.41666 12.1881 6.61493 12.1881 4.3925C12.1881 2.17007 9.46061 0.368347 6.09439 0.368347C2.72818 0.368347 0.000644179 2.17007 0.000644179 4.3925ZM12.6569 11.3433C13.1315 11.3433 13.5915 11.3067 14.0368 11.2404C14.1715 11.293 14.3122 11.3456 14.4528 11.3959C15.5133 11.7709 16.7878 12.075 18.0475 12.075C18.3288 12.075 18.5807 11.9447 18.6921 11.7434C18.8034 11.5422 18.7506 11.309 18.5573 11.1513C18.1413 10.7946 17.7897 10.3807 17.485 9.96001C17.4587 9.92114 17.4294 9.88227 17.403 9.8434C18.2467 9.15061 18.7506 8.2749 18.7506 7.31916C18.7506 5.16075 16.1754 3.3979 12.944 3.29958C13.0641 3.64712 13.1256 4.01295 13.1256 4.3925V4.40622C15.6803 4.55941 17.3444 5.94958 17.3444 7.31916C17.3444 7.95937 17.0104 8.57442 16.3864 9.0843C15.9674 9.42727 15.8796 9.94401 16.1667 10.3601C16.1989 10.4059 16.2311 10.4516 16.2604 10.495C16.3337 10.5979 16.4128 10.7008 16.4919 10.806C15.9938 10.7031 15.4987 10.5613 15.0299 10.3944C14.904 10.351 14.7809 10.3053 14.6608 10.2573C14.3825 10.1475 14.0661 10.1155 13.7614 10.1612C13.4069 10.2161 13.0378 10.2435 12.654 10.2435C10.8463 10.2435 9.43131 9.63762 8.64615 8.81907C8.1774 8.94254 7.68521 9.034 7.18131 9.08887C8.17447 10.4242 10.2546 11.3433 12.6569 11.3433Z" fill="#E9B756"/>
</svg>
