<svg width="11" height="13" viewBox="0 0 11 13" fill="none" xmlns="http://www.w3.org/2000/svg">
<path id="Vector" d="M7.5 9.59833C7.78125 8.86896 8.36426 8.24704 8.94141 7.62741C9.09375 7.46507 9.24609 7.30274 9.39258 7.13811C9.97266 6.48647 10.3125 5.69765 10.3125 4.8448C10.3125 2.62008 8.00391 0.818359 5.15625 0.818359C2.30859 0.818359 0 2.62008 0 4.84251C0 5.69536 0.339844 6.48647 0.919922 7.13583C1.06641 7.30045 1.21875 7.46279 1.37109 7.62513C1.95117 8.24475 2.53418 8.86896 2.8125 9.59605H7.5V9.59833ZM5.15625 12.525C6.45117 12.525 7.5 11.7064 7.5 10.6958V10.33H2.8125V10.6958C2.8125 11.7064 3.86133 12.525 5.15625 12.525ZM2.8125 4.84251C2.8125 5.04372 2.60156 5.20835 2.34375 5.20835C2.08594 5.20835 1.875 5.04372 1.875 4.84251C1.875 3.4272 3.34277 2.28169 5.15625 2.28169C5.41406 2.28169 5.625 2.44631 5.625 2.64752C5.625 2.84873 5.41406 3.01335 5.15625 3.01335C3.86133 3.01335 2.8125 3.8319 2.8125 4.84251Z" fill="#E9B756"/>
</svg>
