<svg width="209" height="51" viewBox="0 0 209 51" fill="none" xmlns="http://www.w3.org/2000/svg">
<g id="Frame" clip-path="url(#clip0_4_405)">
<g id="Group">
<g id="Layer 1">
<g id="Group_2" style="mix-blend-mode:multiply" opacity="0.08">
<path id="Vector" d="M138.434 33.3849C138.442 33.2455 138.442 33.1057 138.434 32.9663C138.418 31.9675 138.603 30.9755 138.977 30.0488C139.352 29.1221 139.91 28.2793 140.617 27.5701C141.303 26.8878 142.005 26.2056 142.675 25.5078C143.346 24.8208 144.164 24.2926 145.068 23.9625C145.972 23.6324 146.939 23.5086 147.898 23.6005H148.21C148.65 23.6392 149.093 23.5775 149.505 23.42C149.917 23.2626 150.288 23.0136 150.589 22.692C150.89 22.3704 151.113 21.9847 151.241 21.5644C151.369 21.1441 151.399 20.7002 151.328 20.2667C150.876 18.3284 150.299 16.0955 146.947 16.1575C146.843 16.1648 146.739 16.1648 146.635 16.1575C144.578 15.8491 142.682 14.8733 141.241 13.3819C140.508 12.6221 139.791 11.8313 139.073 11.0715C137.684 9.56763 136.74 7.71073 136.345 5.70628C136.345 5.59774 136.345 5.47372 136.251 5.34967C135.938 4.31465 135.357 3.3792 134.568 2.63608C133.86 1.89059 132.959 1.35399 131.964 1.08545C129.984 0.635773 128.705 2.4345 128.768 4.1867C128.857 5.31063 129.334 6.36935 130.118 7.18332C130.902 7.99729 131.946 8.51634 133.071 8.65246H133.149C135.049 8.91077 136.793 9.84103 138.06 11.273C139.073 12.374 140.056 13.4904 141.1 14.5758C142.481 15.8839 143.395 17.6042 143.704 19.4758C143.804 20.3175 143.716 21.1707 143.446 21.9747C143.177 22.7787 142.732 23.5138 142.145 24.1277C141.209 25.1201 140.29 26.128 139.307 27.0739C137.894 28.4095 136.033 29.1774 134.084 29.2293H133.991C132.78 29.2808 131.632 29.7771 130.768 30.6221C129.904 31.467 129.386 32.6006 129.313 33.8036C129.305 34.3661 129.415 34.9241 129.636 35.4421C129.857 35.96 130.184 36.4264 130.596 36.8116C131.008 37.1968 131.497 37.4923 132.03 37.6792C132.564 37.8661 133.131 37.9404 133.695 37.8972C134.879 37.7835 135.991 37.2765 136.851 36.458C137.71 35.6395 138.268 34.557 138.434 33.3849Z" fill="url(#paint0_linear_4_405)"/>
<path id="Vector_2" d="M118.976 37.9747H119.429C120.491 37.9444 121.55 38.1265 122.54 38.51C123.531 38.8935 124.435 39.4708 125.197 40.2076C125.883 40.9054 126.554 41.6187 127.24 42.332C127.901 43.0066 128.399 43.8222 128.697 44.7169C128.994 45.6116 129.082 46.5619 128.955 47.4956C128.955 47.5886 128.955 47.6971 128.955 47.8057C128.886 48.4545 129.032 49.1078 129.369 49.6672C129.707 50.2266 130.218 50.6617 130.826 50.9069C131.621 51.0586 132.441 51.027 133.222 50.8147C134.003 50.6023 134.724 50.2149 135.332 49.682C135.897 49.0997 136.282 48.3674 136.439 47.5731C136.641 46.8443 136.517 46.1465 136.735 45.4022C137.252 43.7967 138.12 42.3247 139.276 41.0915C139.993 40.3162 140.726 39.5409 141.459 38.7811C142.89 37.3068 144.759 36.3284 146.791 35.9899L147.165 35.9124C148.254 35.7787 149.269 35.2939 150.055 34.5322C150.84 33.7705 151.353 32.7739 151.515 31.6947C151.616 31.2983 151.614 30.883 151.51 30.4874C151.407 30.0917 151.205 29.7284 150.923 29.4308C150.581 29.1227 150.179 28.889 149.741 28.7448C149.303 28.6006 148.84 28.5491 148.381 28.5935C147.275 28.69 146.232 29.1512 145.418 29.904C144.605 30.6568 144.067 31.6581 143.891 32.7491V32.8267C143.566 34.6747 142.653 36.3702 141.287 37.6646C140.227 38.7346 139.229 39.851 138.169 40.9364C136.913 42.3476 135.195 43.2705 133.32 43.5415C132.467 43.6319 131.604 43.5312 130.794 43.2468C129.985 42.9624 129.25 42.5015 128.643 41.8978C127.676 40.9209 126.741 39.913 125.759 38.9516C124.405 37.6007 123.618 35.7877 123.56 33.8811V33.7881C123.466 32.5744 122.917 31.4401 122.022 30.6101C121.127 29.78 119.951 29.3148 118.727 29.3068C118.169 29.2604 117.608 29.3321 117.081 29.5171C116.553 29.7021 116.071 29.9962 115.665 30.3801C115.26 30.7639 114.942 31.2288 114.73 31.744C114.519 32.2593 114.42 32.8132 114.439 33.3694C114.574 34.5291 115.093 35.6112 115.915 36.4451C116.736 37.279 117.813 37.8171 118.976 37.9747Z" fill="url(#paint1_linear_4_405)"/>
<path id="Vector_3" d="M111.976 6.97779C111.067 9.08935 109.359 10.7603 107.221 11.6297C106.831 11.7847 105.817 12.1879 105.443 11.7537C105.069 11.3195 105.74 10.6218 105.973 10.3271C107.39 8.64057 108.955 7.08371 110.651 5.67527C110.947 5.45819 111.695 4.82242 112.101 5.17906C112.506 5.53571 112.132 6.54362 111.976 6.97779Z" fill="url(#paint2_linear_4_405)"/>
<path id="Vector_4" d="M146.698 10.3892C146.916 10.6683 147.571 11.4126 147.228 11.8158C146.885 12.2189 145.856 11.8158 145.45 11.6762C143.299 10.7793 141.59 9.07416 140.695 6.9313C140.555 6.54364 140.149 5.58228 140.57 5.21013C140.991 4.83798 141.724 5.50473 142.02 5.72182C142.884 6.4127 143.701 7.15857 144.468 7.95472C145.268 8.71324 146.013 9.52675 146.698 10.3892Z" fill="url(#paint3_linear_4_405)"/>
<path id="Vector_5" d="M111.976 45.0456C112.132 45.4332 112.537 46.3946 112.101 46.7513C111.664 47.1079 110.947 46.4722 110.651 46.2396C108.969 44.8155 107.405 43.2599 105.973 41.5877C105.755 41.2931 105.1 40.5488 105.459 40.1611C105.817 39.7735 106.846 40.1612 107.236 40.3317C109.378 41.2219 111.081 42.9155 111.976 45.0456Z" fill="url(#paint4_linear_4_405)"/>
<path id="Vector_6" d="M146.698 41.5877C146.008 42.4415 145.263 43.2495 144.468 44.0067C143.706 44.807 142.888 45.5531 142.02 46.2396C141.724 46.4567 140.991 47.108 140.57 46.7668C140.149 46.4257 140.57 45.4643 140.695 45.0766C141.583 42.9596 143.259 41.2653 145.372 40.3472C145.762 40.1766 146.76 39.758 147.15 40.1611C147.539 40.5643 146.916 41.3086 146.698 41.5877Z" fill="url(#paint5_linear_4_405)"/>
<path id="Vector_7" d="M119.538 43.4949H119.444C117.45 43.172 115.631 42.1687 114.299 40.6573C113.473 39.7735 112.662 38.8896 111.82 38.0368C110.34 36.6512 109.346 34.8307 108.982 32.8422V32.7337C108.85 31.8255 108.939 30.8988 109.243 30.0323C109.547 29.1658 110.057 28.385 110.729 27.7561C111.415 27.1049 112.116 26.4846 112.756 25.8024C113.506 25.0457 114.402 24.448 115.391 24.0456C116.38 23.6431 117.44 23.4443 118.509 23.4609H118.618C119.872 23.454 121.076 22.9669 121.979 22.1007C122.882 21.2344 123.415 20.0557 123.467 18.809C123.5 18.2118 123.407 17.6141 123.194 17.0548C122.981 16.4955 122.652 15.9868 122.229 15.5616C121.806 15.1364 121.298 14.8042 120.737 14.5863C120.177 14.3685 119.577 14.2698 118.976 14.2967C117.759 14.4513 116.631 15.0154 115.78 15.8954C114.929 16.7755 114.407 17.9185 114.299 19.1347V19.2277C114.23 21.3358 113.393 23.3471 111.945 24.8875C111.259 25.5697 110.573 26.2365 109.856 26.9033C109.153 27.5277 108.326 27.9992 107.43 28.2876C106.533 28.576 105.586 28.6749 104.648 28.578H104.57C104.107 28.526 103.639 28.5724 103.195 28.7141C102.752 28.8558 102.343 29.0895 101.998 29.3998C101.715 29.6973 101.512 30.0601 101.406 30.4553C101.3 30.8505 101.294 31.2658 101.39 31.6637C101.473 32.7839 101.97 33.8338 102.784 34.6121C103.599 35.3905 104.673 35.8425 105.802 35.8814H105.942C108.046 36.3249 109.972 37.3768 111.477 38.9051L113.52 41.045C114.942 42.5582 115.946 44.4119 116.435 46.4256V46.6427C116.742 47.6434 117.292 48.5534 118.038 49.2918C118.783 50.0303 119.7 50.5744 120.707 50.8759C121.137 50.9525 121.579 50.926 121.996 50.7986C122.414 50.6711 122.795 50.4464 123.107 50.1431C123.42 49.8398 123.655 49.4666 123.794 49.0547C123.932 48.6428 123.97 48.204 123.903 47.7747C123.769 46.6757 123.264 45.6545 122.471 44.8774C121.678 44.1002 120.644 43.6129 119.538 43.4949Z" fill="url(#paint6_linear_4_405)"/>
<path id="Vector_8" d="M133.819 14.4053H133.367C132.288 14.4415 131.213 14.2502 130.214 13.844C129.214 13.4378 128.312 12.8258 127.567 12.0483C126.881 11.3195 126.211 10.5908 125.54 9.84647C124.877 9.1468 124.378 8.30983 124.079 7.39561C123.78 6.48139 123.688 5.5126 123.81 4.55884C123.81 4.4503 123.81 4.34177 123.81 4.23322C123.888 2.41899 122.609 0.62027 120.598 1.13198C119.492 1.30442 118.45 1.75844 117.573 2.44997C116.903 3.33616 116.469 4.37619 116.31 5.4737C116.303 5.57695 116.303 5.6806 116.31 5.78385C115.899 7.80134 114.939 9.66788 113.535 11.18C112.818 11.9553 112.101 12.7306 111.368 13.4749C109.941 14.9516 108.059 15.9121 106.02 16.204C105.897 16.2375 105.772 16.2633 105.646 16.2815C104.554 16.3542 103.523 16.8051 102.731 17.5559C101.939 18.3066 101.437 19.3097 101.312 20.3907C101.237 20.8241 101.265 21.2688 101.392 21.69C101.519 22.1112 101.742 22.4975 102.044 22.8187C102.345 23.1399 102.718 23.3874 103.132 23.5419C103.546 23.6963 103.99 23.7535 104.43 23.709C105.539 23.67 106.598 23.2399 107.418 22.4957C108.238 21.7514 108.765 20.7415 108.905 19.6464C109.225 17.7665 110.143 16.0382 111.524 14.7154C112.568 13.6455 113.551 12.529 114.642 11.4281C115.899 9.99435 117.63 9.05408 119.522 8.77654C120.393 8.67484 121.277 8.77599 122.102 9.07201C122.927 9.36803 123.672 9.85082 124.277 10.4822C125.26 11.5056 126.211 12.5601 127.162 13.5835C128.523 15.073 129.303 16.9984 129.36 19.0107V18.9486C129.412 20.1952 129.945 21.374 130.848 22.2402C131.751 23.1065 132.954 23.5936 134.209 23.6005C134.786 23.6182 135.361 23.517 135.897 23.3035C136.433 23.09 136.919 22.7686 137.325 22.3595C137.73 21.9505 138.046 21.4625 138.253 20.9263C138.46 20.39 138.554 19.8171 138.528 19.2432C138.427 18.0194 137.903 16.868 137.045 15.9857C136.186 15.1034 135.046 14.5449 133.819 14.4053Z" fill="url(#paint7_linear_4_405)"/>
</g>
<path id="Vector_9" d="M137.795 32.408C137.803 32.2686 137.803 32.1288 137.795 31.9894C137.778 30.9905 137.962 29.9983 138.337 29.0714C138.712 28.1446 139.27 27.3019 139.978 26.5932C140.679 25.9109 141.365 25.2287 142.036 24.5309C142.707 23.8439 143.525 23.3157 144.429 22.9856C145.333 22.6555 146.3 22.5317 147.259 22.6236H147.586C148.026 22.6623 148.469 22.6006 148.881 22.4431C149.294 22.2857 149.664 22.0367 149.965 21.7151C150.266 21.3935 150.489 21.0078 150.617 20.5875C150.745 20.1672 150.775 19.7233 150.705 19.2898C150.252 17.3515 149.691 15.1186 146.339 15.1806C146.235 15.1894 146.131 15.1894 146.027 15.1806C143.969 14.8779 142.07 13.9012 140.633 12.405C139.9 11.6452 139.167 10.8544 138.465 10.0946C137.077 8.58796 136.128 6.73285 135.721 4.72938C135.729 4.61061 135.729 4.49154 135.721 4.37277C135.403 3.33609 134.817 2.40048 134.022 1.65918C133.32 0.91422 132.424 0.377456 131.434 0.108555C129.454 -0.341125 128.175 1.4576 128.222 3.2098C128.314 4.33506 128.795 5.39408 129.582 6.20779C130.368 7.02151 131.414 7.54001 132.541 7.6756H132.619C134.514 7.93746 136.251 8.86743 137.514 10.2962C138.543 11.3971 139.526 12.5135 140.633 13.599C142.008 14.9111 142.921 16.6295 143.236 18.4989C143.333 19.3405 143.243 20.1928 142.974 20.9963C142.705 21.7998 142.262 22.5351 141.677 23.1508C140.726 24.1432 139.806 25.1511 138.824 26.097C137.411 27.4326 135.55 28.2005 133.601 28.2524H133.507C132.296 28.3005 131.145 28.7957 130.281 29.6413C129.416 30.487 128.899 31.6225 128.83 32.8267C128.822 33.3892 128.932 33.9472 129.153 34.4652C129.373 34.9831 129.7 35.4495 130.113 35.8347C130.525 36.2199 131.013 36.5154 131.547 36.7023C132.08 36.8893 132.647 36.9635 133.211 36.9203C134.366 36.7693 135.439 36.2464 136.267 35.4316C137.095 34.6167 137.631 33.5548 137.795 32.408Z" fill="#FF9E18"/>
<path id="Vector_10" d="M118.259 36.9979C118.41 37.0131 118.561 37.0131 118.711 36.9979C119.775 36.974 120.832 37.1604 121.823 37.5464C122.813 37.9324 123.716 38.5102 124.48 39.2463C125.166 39.944 125.837 40.6573 126.523 41.3706C127.203 42.0383 127.72 42.8526 128.033 43.7506C128.347 44.6486 128.449 45.6063 128.331 46.5497C128.323 46.6529 128.323 46.7566 128.331 46.8598C128.256 47.5075 128.397 48.1616 128.733 48.7219C129.068 49.2821 129.579 49.7175 130.187 49.9611C130.984 50.1105 131.806 50.0779 132.589 49.8657C133.372 49.6535 134.097 49.2672 134.708 48.7361C135.272 48.1487 135.651 47.4104 135.799 46.6117C136.002 45.8829 135.893 45.1852 136.111 44.4564C136.623 42.8516 137.485 41.3794 138.637 40.1456C139.354 39.3703 140.087 38.595 140.82 37.8352C142.249 36.3582 144.119 35.3794 146.152 35.0441H146.526C147.616 34.9128 148.632 34.4288 149.418 33.6667C150.204 32.9046 150.716 31.9066 150.876 30.8264C150.981 30.4314 150.984 30.0162 150.883 29.6201C150.782 29.2239 150.581 28.8599 150.299 28.5625C149.955 28.2539 149.55 28.0201 149.109 27.876C148.669 27.7318 148.204 27.6804 147.742 27.7251C146.636 27.8243 145.595 28.2863 144.782 29.0387C143.969 29.791 143.431 30.7908 143.252 31.8808V31.9584C142.933 33.8085 142.019 35.5059 140.648 36.7963C139.588 37.8507 138.59 38.9671 137.53 40.0681C136.272 41.4771 134.555 42.3996 132.681 42.6731C131.828 42.7613 130.965 42.6596 130.156 42.3753C129.347 42.091 128.612 41.6313 128.004 41.0295C127.037 40.0526 126.086 39.0447 125.104 38.0833C123.75 36.7324 122.964 34.9194 122.905 33.0128V32.9197C122.857 31.6405 122.302 30.4323 121.361 29.5581C120.421 28.684 119.172 28.2146 117.885 28.2523C117.33 28.206 116.77 28.2772 116.245 28.4615C115.719 28.6457 115.238 28.9387 114.835 29.3211C114.431 29.7035 114.113 30.1666 113.903 30.68C113.692 31.1934 113.593 31.7453 113.613 32.2994C113.733 33.4921 114.259 34.6081 115.104 35.4626C115.949 36.3172 117.062 36.8589 118.259 36.9979Z" fill="#FF8300"/>
<path id="Vector_11" d="M111.337 5.98542C110.9 7.04857 110.255 8.01442 109.438 8.82649C108.622 9.63856 107.65 10.2805 106.581 10.7148C106.192 10.8699 105.194 11.273 104.82 10.8388C104.445 10.4047 105.116 9.69139 105.334 9.41228C106.761 7.73557 108.326 6.1796 110.012 4.76041C110.323 4.54332 111.056 3.90756 111.461 4.2642C111.867 4.62084 111.493 5.59776 111.337 5.98542Z" fill="#FF9E18"/>
<path id="Vector_12" d="M146.074 9.41228C146.292 9.69139 146.947 10.4357 146.588 10.8388C146.23 11.242 145.216 10.8388 144.827 10.6993C142.672 9.80664 140.962 8.1001 140.071 5.95437C139.915 5.56671 139.51 4.58984 139.947 4.2332C140.383 3.87656 141.1 4.5278 141.397 4.74489C142.252 5.43989 143.064 6.18554 143.829 6.97779C144.629 7.74015 145.379 8.55336 146.074 9.41228Z" fill="#FF8300"/>
<path id="Vector_13" d="M111.352 44.0687C111.493 44.4564 111.898 45.4022 111.461 45.7744C111.025 46.1465 110.323 45.4953 110.011 45.2627C109.156 44.5677 108.344 43.822 107.579 43.0298C106.779 42.2728 106.029 41.4648 105.334 40.6108C105.116 40.3162 104.461 39.5719 104.82 39.1842C105.178 38.7966 106.223 39.1843 106.613 39.3548C108.752 40.2492 110.453 41.9414 111.352 44.0687Z" fill="#FF8300"/>
<path id="Vector_14" d="M146.074 40.6573C145.379 41.5113 144.629 42.3193 143.829 43.0763C143.064 43.8685 142.252 44.6142 141.397 45.3092C141.1 45.5263 140.352 46.162 139.947 45.8364C139.541 45.5108 139.947 44.5339 140.056 44.1462C140.947 42.0279 142.621 40.3298 144.733 39.4013C145.138 39.2463 146.136 38.8121 146.51 39.2307C146.885 39.6494 146.277 40.3317 146.074 40.6573Z" fill="#FF9E18"/>
<path id="Vector_15" d="M118.976 42.5181H118.898C116.874 42.2161 115.02 41.2174 113.66 39.696C112.833 38.8121 112.101 37.9283 111.181 37.0754C109.698 35.6946 108.707 33.8712 108.359 31.8808V31.7723C108.223 30.8653 108.309 29.9391 108.61 29.0725C108.912 28.2058 109.419 27.4244 110.089 26.7948C110.775 26.1435 111.477 25.5078 112.132 24.841C112.878 24.0791 113.774 23.4781 114.764 23.0753C115.753 22.6725 116.816 22.4765 117.885 22.4996H117.994C119.246 22.4887 120.446 21.9998 121.345 21.134C122.245 20.2682 122.776 19.0917 122.827 17.8477C122.858 17.2578 122.765 16.668 122.554 16.1157C122.344 15.5634 122.02 15.0606 121.604 14.6393C121.187 14.218 120.688 13.8873 120.136 13.6681C119.584 13.449 118.993 13.3463 118.4 13.3664C117.167 13.5016 116.019 14.0575 115.152 14.9396C114.285 15.8217 113.752 16.9754 113.644 18.2043V18.2974C113.567 20.4065 112.725 22.4168 111.274 23.9572C110.588 24.6394 109.902 25.3062 109.201 25.9574C108.496 26.5842 107.667 27.0582 106.768 27.3492C105.869 27.6402 104.919 27.7418 103.978 27.6476H103.9C103.436 27.6007 102.967 27.651 102.524 27.7952C102.081 27.9394 101.673 28.1744 101.327 28.485C101.043 28.7777 100.839 29.1383 100.735 29.5321C100.631 29.9259 100.631 30.3395 100.735 30.7334C100.815 31.8537 101.307 32.9053 102.119 33.6865C102.93 34.4677 104.003 34.9235 105.131 34.9666H105.272C107.376 35.41 109.302 36.462 110.807 37.9903C111.493 38.7036 112.179 39.4014 112.849 40.1302C114.281 41.6387 115.292 43.4937 115.78 45.5108V45.7124C116.078 46.7168 116.624 47.6314 117.367 48.3732C118.11 49.1151 119.028 49.6609 120.037 49.9611C120.467 50.0369 120.909 50.01 121.327 49.8825C121.745 49.755 122.127 49.5306 122.44 49.2278C122.754 48.9249 122.991 48.5523 123.131 48.1406C123.272 47.729 123.312 47.29 123.248 46.8599C123.131 45.7637 122.646 44.739 121.871 43.9512C121.095 43.1633 120.076 42.6584 118.976 42.5181Z" fill="#FF9E18"/>
<path id="Vector_16" d="M133.18 13.4284H132.728C131.649 13.4636 130.574 13.2719 129.575 12.8657C128.575 12.4596 127.673 11.8482 126.928 11.0715C126.242 10.3427 125.571 9.52083 124.901 8.86957C124.238 8.1699 123.739 7.33293 123.44 6.41871C123.141 5.50449 123.049 4.53571 123.17 3.58194C123.178 3.47353 123.178 3.36473 123.17 3.25632C123.248 1.44209 121.954 -0.356628 119.959 0.155077C118.847 0.324256 117.799 0.778532 116.918 1.47312C116.255 2.36289 115.821 3.40121 115.655 4.4968C115.655 4.60535 115.655 4.6984 115.655 4.80695C115.251 6.82658 114.29 8.6947 112.88 10.2031C112.179 10.9784 111.446 11.7537 110.713 12.498C109.281 13.968 107.401 14.9273 105.365 15.2271C105.241 15.2346 105.116 15.2346 104.991 15.2271C103.9 15.3038 102.87 15.7585 102.081 16.5121C101.292 17.2657 100.794 18.2705 100.672 19.3518C100.598 19.7852 100.625 20.2299 100.752 20.6511C100.879 21.0722 101.102 21.4585 101.404 21.7798C101.706 22.101 102.079 22.3485 102.493 22.503C102.907 22.6574 103.351 22.7146 103.791 22.6701C104.9 22.6311 105.959 22.201 106.779 21.4567C107.598 20.7125 108.125 19.7026 108.265 18.6075C108.586 16.7276 109.504 14.9993 110.885 13.6765C111.929 12.6066 112.927 11.4901 114.003 10.3892C115.243 8.94207 116.974 7.99839 118.867 7.7376C119.741 7.63705 120.626 7.73871 121.454 8.03459C122.281 8.33047 123.029 8.81258 123.638 9.4433C124.62 10.4667 125.556 11.5211 126.507 12.5445C127.867 14.0362 128.652 15.9592 128.721 17.9717V18.0493C128.773 19.2986 129.308 20.4796 130.214 21.3462C131.121 22.2128 132.328 22.6982 133.585 22.7012C134.162 22.719 134.736 22.6178 135.271 22.4041C135.807 22.1904 136.292 21.8688 136.696 21.4595C137.1 21.0502 137.415 20.562 137.62 20.0258C137.825 19.4896 137.917 18.9169 137.889 18.3439C137.806 17.1062 137.289 15.9366 136.429 15.0386C135.569 14.1405 134.419 13.5707 133.18 13.4284Z" fill="#FF8300"/>
<path id="Vector_17" d="M3.33751e-05 13.1803C-0.0249201 12.6814 0.101204 12.1864 0.362121 11.7595C0.623039 11.3326 1.00674 10.9934 1.46359 10.7857C1.92044 10.578 2.42945 10.5115 2.92476 10.5946C3.42007 10.6777 3.87892 10.9067 4.24196 11.252C4.605 11.5972 4.85553 12.0429 4.96116 12.5313C5.0668 13.0197 5.02267 13.5284 4.83448 13.9916C4.64629 14.4548 4.3227 14.8512 3.90556 15.1295C3.48843 15.4078 2.99692 15.5553 2.49461 15.5528C2.17229 15.5674 1.85032 15.517 1.54819 15.4043C1.24605 15.2917 0.970042 15.1192 0.736842 14.8975C0.503642 14.6757 0.318121 14.4092 0.191474 14.114C0.0648269 13.8189 -0.000304509 13.5012 3.33751e-05 13.1803ZM0.483357 17.398H4.55266V33.4315H0.483357V17.398Z" fill="white"/>
<path id="Vector_18" d="M13.3773 17.2119C14.4073 17.1708 15.4317 17.381 16.3612 17.8243C17.2907 18.2676 18.0969 18.9304 18.7095 19.7549V17.398H22.8099V33.5555C22.8741 34.6064 22.7101 35.6586 22.329 36.6408C21.9479 37.623 21.3587 38.5121 20.6013 39.2476C19.844 39.9832 18.9363 40.548 17.94 40.9036C16.9436 41.2592 15.882 41.3974 14.8272 41.3086C10.2902 41.3086 7.12519 39.0447 6.71982 35.3697H10.7579C11.1558 36.2417 11.8452 36.9496 12.7089 37.3728C13.5726 37.7961 14.5571 37.9085 15.4947 37.6909C16.4324 37.4733 17.2652 36.9392 17.8513 36.1795C18.4375 35.4198 18.7407 34.4815 18.7095 33.5245V31.028C18.1034 31.8657 17.3009 32.5437 16.3717 33.003C15.4425 33.4624 14.4146 33.6893 13.3773 33.664C9.27678 33.664 6.01822 30.3302 6.01822 25.3372C6.01822 20.3442 9.27678 17.2119 13.3773 17.2119ZM14.4219 20.7629C13.8291 20.7692 13.2441 20.8972 12.7034 21.1389C12.1627 21.3807 11.6782 21.7309 11.28 22.1677C10.8818 22.6045 10.5787 23.1183 10.3896 23.6771C10.2005 24.2358 10.1295 24.8274 10.1811 25.4147C10.1254 26.0091 10.1928 26.6085 10.3789 27.176C10.565 27.7435 10.866 28.2671 11.2633 28.7145C11.6606 29.1619 12.1458 29.5238 12.689 29.7776C13.2322 30.0315 13.822 30.172 14.4219 30.1906C15.5997 30.0742 16.692 29.5265 17.4865 28.6539C18.281 27.7813 18.721 26.6462 18.721 25.469C18.721 24.2918 18.281 23.1567 17.4865 22.2841C16.692 21.4115 15.5997 20.8638 14.4219 20.7474V20.7629Z" fill="white"/>
<path id="Vector_19" d="M36.6237 24.6394C36.6817 24.1337 36.6316 23.6215 36.4767 23.1364C36.3217 22.6512 36.0655 22.2042 35.7247 21.8244C35.3839 21.4447 34.9663 21.1408 34.4992 20.9327C34.0322 20.7247 33.5262 20.6172 33.0144 20.6172C32.5026 20.6172 31.9966 20.7247 31.5295 20.9327C31.0624 21.1408 30.6448 21.4447 30.304 21.8244C29.9632 22.2042 29.707 22.6512 29.5521 23.1364C29.3972 23.6215 29.347 24.1337 29.405 24.6394V33.4935H25.3357V17.398H29.405V19.3983C29.9898 18.6815 30.7329 18.1085 31.5766 17.7239C32.4203 17.3393 33.3418 17.1535 34.2695 17.1809C38.0113 17.1809 40.693 19.5999 40.693 24.0347V33.4314H36.6237V24.6394Z" fill="white"/>
<path id="Vector_20" d="M54.195 17.398H58.5294L48.551 41.014H44.1387L47.6311 33.0283L41.2387 17.398H45.807L49.9698 28.609L54.195 17.398Z" fill="white"/>
<path id="Vector_21" d="M59.8858 20.7939H57.9681V17.398H59.8858V13.4439H63.9863V17.398H67.6034V20.7318H63.9863V28.4849C63.9863 29.5549 64.4228 30.0356 65.7013 30.0356H67.6034V33.447H65.0309C61.9126 33.447 59.8858 32.1444 59.8858 28.4695V20.7939Z" fill="white"/>
<path id="Vector_22" d="M76.1162 33.757C73.9725 33.6647 71.9474 32.7528 70.4633 31.2115C68.9792 29.6702 68.1507 27.6185 68.1507 25.4845C68.1507 23.3504 68.9792 21.2988 70.4633 19.7575C71.9474 18.2162 73.9725 17.3042 76.1162 17.2119C77.1766 17.1559 78.2369 17.3226 79.2282 17.7012C80.2195 18.0798 81.1195 18.6617 81.8696 19.4092C82.6198 20.1567 83.2032 21.053 83.5819 22.0396C83.9606 23.0262 84.1262 24.0811 84.0677 25.1356C84.0718 25.6551 84.0301 26.174 83.943 26.6862H72.2028C72.2088 27.1843 72.3145 27.6763 72.5137 28.1334C72.7129 28.5905 73.0015 29.0035 73.3629 29.3485C73.7243 29.6935 74.1511 29.9634 74.6184 30.1426C75.0858 30.3218 75.5844 30.4067 76.0851 30.3922C76.7572 30.4326 77.4257 30.2689 78.0021 29.9227C78.5785 29.5766 79.0355 29.0643 79.3124 28.4539H83.7091C83.2253 30.057 82.2135 31.4516 80.8363 32.4135C79.4591 33.3754 77.7966 33.8486 76.1162 33.757ZM72.2028 23.9726H79.8581C79.8425 23.4932 79.7298 23.0218 79.5268 22.5867C79.3238 22.1515 79.0346 21.7616 78.6765 21.4402C78.3184 21.1188 77.8988 20.8726 77.4428 20.7162C76.9868 20.5599 76.5038 20.4966 76.0227 20.5302C75.0647 20.5115 74.1357 20.8574 73.4257 21.4973C72.7156 22.1372 72.2782 23.0226 72.2028 23.9726Z" fill="white"/>
<path id="Vector_23" d="M91.7386 33.7571C87.7005 33.7571 84.8785 31.4156 84.6914 28.4384H88.8075C88.9328 29.0919 89.3006 29.6746 89.8377 30.071C90.3749 30.4673 91.0423 30.6484 91.7074 30.5783C93.2666 30.5783 94.1864 29.8495 94.1864 28.9191C94.1864 26.066 85.0812 27.8802 85.0812 22.0033C85.0812 19.3518 87.4666 17.2119 91.4424 17.2119C95.4181 17.2119 97.6789 19.3208 97.9283 22.4996H94.0305C93.9941 22.1855 93.8948 21.8819 93.7387 21.6066C93.5827 21.3312 93.3728 21.0896 93.1215 20.8961C92.8703 20.7025 92.5827 20.5608 92.2755 20.4794C91.9684 20.3979 91.648 20.3783 91.3332 20.4217C89.7741 20.4217 89.0257 21.0265 89.0257 21.9724C89.0257 24.8875 97.9595 23.0733 98.0842 28.9346C98.0842 31.6792 95.6676 33.7571 91.7386 33.7571Z" fill="white"/>
<path id="Vector_24" d="M153.76 19.3983H151.546V17.6926H153.76V13.7385H155.818V17.6926H160.184V19.3983H155.818V29.2137C155.818 31.152 156.489 31.7568 158.329 31.7568H160.184V33.4935H157.954C155.195 33.4935 153.714 32.377 153.714 29.2137L153.76 19.3983Z" fill="white"/>
<path id="Vector_25" d="M168.946 33.726C164.425 33.726 161.151 30.6248 161.151 25.6008C161.151 20.5768 164.378 17.46 168.946 17.46C169.934 17.4101 170.921 17.5646 171.845 17.9139C172.769 18.2631 173.611 18.7995 174.316 19.489C175.021 20.1785 175.574 21.0061 175.941 21.9193C176.307 22.8326 176.479 23.8116 176.446 24.7944C176.477 25.3108 176.477 25.8287 176.446 26.3451H163.271C163.254 27.0963 163.391 27.8431 163.674 28.5399C163.957 29.2366 164.38 29.8686 164.917 30.397C165.454 30.9254 166.094 31.3392 166.797 31.613C167.501 31.8868 168.253 32.0149 169.009 31.9894C170.141 32.0789 171.269 31.7755 172.201 31.1309C173.133 30.4864 173.812 29.5404 174.122 28.4539H176.274C175.883 30.0558 174.93 31.4665 173.587 32.4328C172.244 33.399 170.598 33.8575 168.946 33.726ZM163.209 24.7324H174.388C174.44 23.9946 174.334 23.2541 174.075 22.5608C173.816 21.8674 173.41 21.2373 172.886 20.7128C172.361 20.1883 171.73 19.7817 171.034 19.5202C170.339 19.2586 169.595 19.1483 168.853 19.1967C168.112 19.1757 167.375 19.304 166.686 19.5737C165.997 19.8435 165.37 20.2492 164.843 20.7664C164.315 21.2836 163.899 21.9017 163.618 22.5833C163.337 23.2649 163.198 23.9959 163.209 24.7324Z" fill="white"/>
<path id="Vector_26" d="M185.488 17.398C187.159 17.2559 188.825 17.726 190.171 18.7198C191.518 19.7136 192.453 21.1626 192.801 22.7942H190.696C190.421 21.6756 189.753 20.6917 188.812 20.0205C187.871 19.3493 186.72 19.0351 185.566 19.1347C182.448 19.1347 179.922 21.259 179.922 25.5388C179.922 29.8185 182.464 31.9584 185.566 31.9584C186.722 32.0572 187.875 31.7408 188.816 31.0665C189.757 30.3923 190.424 29.4048 190.696 28.2833H192.879C192.51 29.9025 191.569 31.3363 190.227 32.3237C188.885 33.3112 187.231 33.7868 185.566 33.664C181.092 33.664 177.864 30.5628 177.864 25.5388C177.864 20.5147 181.014 17.398 185.488 17.398Z" fill="white"/>
<path id="Vector_27" d="M195.093 12.0794H197.12V20.3907C197.675 19.4336 198.486 18.6486 199.463 18.123C200.44 17.5973 201.545 17.3518 202.654 17.4135C206.178 17.4135 209 19.6154 209 24.2363V33.54H206.989V24.5154C206.989 21.0109 205.071 19.2277 202.155 19.2277C199.24 19.2277 197.12 21.073 197.12 24.9185V33.54H195.093V12.0794Z" fill="white"/>
</g>
</g>
</g>
<defs>
<linearGradient id="paint0_linear_4_405" x1="128.846" y1="19.4913" x2="151.468" y2="19.4913" gradientUnits="userSpaceOnUse">
<stop stop-color="white"/>
<stop offset="1"/>
</linearGradient>
<linearGradient id="paint1_linear_4_405" x1="114.237" y1="39.789" x2="151.468" y2="39.789" gradientUnits="userSpaceOnUse">
<stop stop-color="white"/>
<stop offset="1"/>
</linearGradient>
<linearGradient id="paint2_linear_4_405" x1="105.35" y1="8.55942" x2="112.288" y2="8.55942" gradientUnits="userSpaceOnUse">
<stop stop-color="white"/>
<stop offset="1"/>
</linearGradient>
<linearGradient id="paint3_linear_4_405" x1="140.383" y1="8.55946" x2="147.321" y2="8.55946" gradientUnits="userSpaceOnUse">
<stop stop-color="white"/>
<stop offset="1"/>
</linearGradient>
<linearGradient id="paint4_linear_4_405" x1="105.35" y1="43.4174" x2="112.288" y2="43.4174" gradientUnits="userSpaceOnUse">
<stop stop-color="white"/>
<stop offset="1"/>
</linearGradient>
<linearGradient id="paint5_linear_4_405" x1="140.383" y1="43.433" x2="147.321" y2="43.433" gradientUnits="userSpaceOnUse">
<stop stop-color="white"/>
<stop offset="1"/>
</linearGradient>
<linearGradient id="paint6_linear_4_405" x1="101.202" y1="32.6406" x2="123.825" y2="32.6406" gradientUnits="userSpaceOnUse">
<stop stop-color="white"/>
<stop offset="1"/>
</linearGradient>
<linearGradient id="paint7_linear_4_405" x1="101.202" y1="12.312" x2="138.497" y2="12.312" gradientUnits="userSpaceOnUse">
<stop stop-color="white"/>
<stop offset="1"/>
</linearGradient>
<clipPath id="clip0_4_405">
<rect width="209" height="51" fill="white"/>
</clipPath>
</defs>
</svg>
