<svg width="15" height="14" viewBox="0 0 15 14" fill="none" xmlns="http://www.w3.org/2000/svg">
<path id="Vector" d="M0 7C0 5.14348 0.790176 3.36301 2.1967 2.05025C3.60322 0.737498 5.51088 0 7.5 0C9.48912 0 11.3968 0.737498 12.8033 2.05025C14.2098 3.36301 15 5.14348 15 7C15 8.85652 14.2098 10.637 12.8033 11.9497C11.3968 13.2625 9.48912 14 7.5 14C5.51088 14 3.60322 13.2625 2.1967 11.9497C0.790176 10.637 0 8.85652 0 7ZM5.5166 4.02227C5.29395 4.13711 5.15625 4.35859 5.15625 4.59375V9.40625C5.15625 9.64414 5.29395 9.86289 5.5166 9.97773C5.73926 10.0926 6.00879 10.0898 6.22852 9.96406L10.4473 7.55781C10.6553 7.4375 10.7842 7.22695 10.7842 6.99727C10.7842 6.76758 10.6553 6.55703 10.4473 6.43672L6.22852 4.03047C6.01172 3.90742 5.73926 3.90195 5.5166 4.0168V4.02227Z" fill="#FF8300"/>
</svg>
