<svg width="15" height="13" viewBox="0 0 15 13" fill="none" xmlns="http://www.w3.org/2000/svg">
<path id="Vector" d="M0.462232 6.76775C-0.199872 7.0627 -0.138349 7.84923 0.5677 8.07788L4.67802 9.41544V11.7773C4.67802 12.1912 5.10575 12.525 5.63602 12.525C5.9202 12.525 6.18973 12.4267 6.37137 12.2552L8.18776 10.5564L11.8176 11.7362C12.3713 11.9168 13.0129 11.6333 13.1037 11.1714L14.9787 1.65985C15.0344 1.3832 14.8791 1.10425 14.5832 0.946487C14.2873 0.788723 13.9006 0.775005 13.5871 0.914477L0.462232 6.76775ZM1.98859 7.35079L11.9934 2.88996L5.55985 8.50087L5.59501 8.52373L1.98859 7.35079ZM11.8059 10.5449L6.92507 8.95587L13.1975 3.48443L11.8059 10.5449Z" fill="#E9B756"/>
</svg>
