<svg width="15" height="13" viewBox="0 0 15 13" fill="none" xmlns="http://www.w3.org/2000/svg">
<path id="Vector" d="M2.25 3.25C2.25 2.38805 2.56607 1.5614 3.12868 0.951903C3.69129 0.34241 4.45435 0 5.25 0C6.04565 0 6.80871 0.34241 7.37132 0.951903C7.93393 1.5614 8.25 2.38805 8.25 3.25C8.25 4.11195 7.93393 4.9386 7.37132 5.5481C6.80871 6.15759 6.04565 6.5 5.25 6.5C4.45435 6.5 3.69129 6.15759 3.12868 5.5481C2.56607 4.9386 2.25 4.11195 2.25 3.25ZM0 12.2459C0 9.74492 1.87031 7.71875 4.17891 7.71875H6.32109C8.62969 7.71875 10.5 9.74492 10.5 12.2459C10.5 12.6623 10.1883 13 9.80391 13H0.696094C0.311719 13 0 12.6623 0 12.2459ZM14.2805 13H11.0484C11.175 12.7613 11.25 12.4846 11.25 12.1875V11.9844C11.25 10.4432 10.6148 9.05937 9.61406 8.13008C9.67031 8.12754 9.72422 8.125 9.78047 8.125H11.2195C13.3078 8.125 15 9.9582 15 12.2205C15 12.6521 14.6766 13 14.2805 13ZM10.125 6.5C9.39844 6.5 8.74219 6.18008 8.26641 5.66465C8.72813 4.98926 9 4.15391 9 3.25C9 2.56953 8.84531 1.92715 8.57109 1.36348C9.00703 1.01816 9.54375 0.8125 10.125 0.8125C11.5758 0.8125 12.75 2.08457 12.75 3.65625C12.75 5.22793 11.5758 6.5 10.125 6.5Z" fill="#E9B756"/>
</svg>
